<svg version="1.1" id="Layer_1" xmlns="http://www.w3.org/2000/svg" xmlns:xlink="http://www.w3.org/1999/xlink" x="0px" y="0px" viewBox="0 0 500 500" style="width: 158px;" xml:space="preserve" data-imageid="party-94-24228" imageName="Party" class="illustrations_image">
<style type="text/css">
	.st0_party-94-24228{fill:#6E6FE5;}
	.st1_party-94-24228{fill:#68E1FD;}
	.st2_party-94-24228{opacity:0.11;fill:#40424E;enable-background:new    ;}
	.st3_party-94-24228{opacity:0.52;fill:#40424E;enable-background:new    ;}
	.st4_party-94-24228{fill:#D740A7;}
	.st5_party-94-24228{fill:#6210BC;}
	.st6_party-94-24228{opacity:0.5;fill:url(#SVGID_1_);enable-background:new    ;}
	.st7_party-94-24228{opacity:0.5;fill:url(#SVGID_00000116219412631029919130000001414245261525741994_);enable-background:new    ;}
	.st8_party-94-24228{opacity:0.5;fill:url(#SVGID_00000119827072038800156490000010044607170826305669_);enable-background:new    ;}
	.st9_party-94-24228{fill:#FFBB8F;}
	.st10_party-94-24228{fill:#EB4B1F;}
	.st11_party-94-24228{fill:#FCBF17;}
	.st12_party-94-24228{fill:#40424E;}
	.st13_party-94-24228{opacity:0.5;fill:url(#SVGID_00000028308077540969058290000001662713453097113514_);enable-background:new    ;}
	.st14_party-94-24228{opacity:0.5;fill:url(#SVGID_00000124151818366599337400000004063691103751052710_);enable-background:new    ;}
	.st15_party-94-24228{opacity:0.5;fill:url(#SVGID_00000085250206504059374710000003120639890158037931_);enable-background:new    ;}
	.st16_party-94-24228{fill:#85B23B;}
</style>
<path id="field_party-94-24228" class="st0_party-94-24228" d="M256.9,425.1l215.4-127.3c6.9-3.9,12.7-10.2,6-14.3L262.1,159c-3.2-2-8.2-3.3-11.5-1.4l-226,131.2&#10;&#9;c-6.9,4-8.1,15.1-1.2,19.1l205,117C237.2,430,248,430.1,256.9,425.1z"/>
<g id="speaker_party-94-24228">
	<polygon class="st1_party-94-24228 targetColor" points="212.2,125.3 258.9,153 309.1,123.5 260.7,96.4 &#9;" style="fill: rgb(16, 69, 138);"/>
	<polygon class="st1_party-94-24228 targetColor" points="309.1,123.5 309.1,230.4 260.7,258.3 258.9,153 &#9;" style="fill: rgb(16, 69, 138);"/>
	<polygon class="st2_party-94-24228" points="212.2,125.3 258.9,153 309.1,123.5 260.7,96.4 &#9;"/>
	<polygon class="st3_party-94-24228" points="309.1,123.5 309.1,230.4 260.7,258.3 258.9,153 &#9;"/>
	<polygon class="st1_party-94-24228 targetColor" points="212.2,125.3 212.2,231.7 260.7,258.3 258.9,153 &#9;" style="fill: rgb(16, 69, 138);"/>
	<ellipse transform="matrix(0.897 -0.442 0.442 0.897 -49.7355 120.0085)" class="st4_party-94-24228" cx="232.7" cy="166.7" rx="11.2" ry="19"/>
	<ellipse transform="matrix(0.897 -0.442 0.442 0.897 -49.928 120.0534)" class="st5_party-94-24228" cx="232.7" cy="167.2" rx="7.7" ry="12.6"/>
	<ellipse transform="matrix(0.897 -0.442 0.442 0.897 -69.8913 125.8061)" class="st4_party-94-24228" cx="235" cy="212.9" rx="15.7" ry="26.5"/>
	<ellipse transform="matrix(0.897 -0.442 0.442 0.897 -68.4591 125.9744)" class="st5_party-94-24228" cx="236.1" cy="209.9" rx="9.7" ry="13.4"/>
	
		<linearGradient id="SVGID_1_-party-94-24228" gradientUnits="userSpaceOnUse" x1="194.1806" y1="225.2886" x2="219.5306" y2="253.0086" gradientTransform="matrix(1 0 0 -1 0 502)">
		<stop offset="0" style="stop-color:#FFFFFF;stop-opacity:0"/>
		<stop offset="1" style="stop-color:#40424E"/>
	</linearGradient>
	<path class="st6_party-94-24228" d="M213.5,227l-31.3,18.3c-0.7,2.3-24.8,12-25.1,14.4l46,31l65-36.9L213.5,227z"/>
</g>
<g id="person3_party-94-24228">
	<polygon class="st1_party-94-24228 targetColor" points="295.1,293.3 356.5,327.8 425.9,287.6 365.8,252.8 &#9;" style="fill: rgb(16, 69, 138);"/>
	
		<linearGradient id="SVGID_00000178885308464272020190000009972811645572631210_-party-94-24228" gradientUnits="userSpaceOnUse" x1="332.2632" y1="193.6963" x2="344.1532" y2="206.7063" gradientTransform="matrix(1 0 0 -1 0 502)">
		<stop offset="0" style="stop-color:#FFFFFF;stop-opacity:0"/>
		<stop offset="1" style="stop-color:#40424E"/>
	</linearGradient>
	<path style="opacity:0.5;fill:url(#SVGID_00000178885308464272020190000009972811645572631210_);enable-background:new    ;" d="&#10;&#9;&#9;M353.1,287.1c-10.6,6.2-21.1,12.7-31.8,18.8l6.8,3.7l32.4-18L353.1,287.1z"/>
	
		<linearGradient id="SVGID_00000092430662842537198640000009419630754511723396_-party-94-24228" gradientUnits="userSpaceOnUse" x1="347.5019" y1="182.4274" x2="359.4019" y2="195.4374" gradientTransform="matrix(1 0 0 -1 0 502)">
		<stop offset="0" style="stop-color:#FFFFFF;stop-opacity:0"/>
		<stop offset="1" style="stop-color:#40424E"/>
	</linearGradient>
	<path style="opacity:0.5;fill:url(#SVGID_00000092430662842537198640000009419630754511723396_);enable-background:new    ;" d="&#10;&#9;&#9;M368.4,298.4c-10.6,6.2-21.1,12.7-31.8,18.8l6.8,3.7l32.4-18L368.4,298.4z"/>
	<path class="st9_party-94-24228" d="M343.9,92.7c0,0,4.5-9.1,3.8-9.9s-3.3,2.8-3.3,2.8s0-9.3-0.8-9.5s-1.2,5.8-1.2,5.8s-0.9-6.9-2.2-6.9&#10;&#9;&#9;s0,6.6,0,6.6s-2.4-4.2-3.2-3.8s1.2,5.5,1.2,5.5s-2.2-1.9-2.5-1.4s2.3,7,4,8.6c1.1,1,2,2.2,2.8,3.5"/>
	<path class="st4_party-94-24228" d="M361.8,147.3c0,0-7.9-22-10.7-30.2s-4.5-26.1-4.5-26.1s-8.5-0.5-8.8,1.5s0.9,53.7,18.2,69.1"/>
	<path class="st9_party-94-24228" d="M347,220.7c0,0-2.8,13.8-3.2,22.9s9.7,35.5,9.7,35.5l7.1-3.7c0,0-7-24.4-5.7-28.9s8.3-22.1,6.8-25.7&#10;&#9;&#9;S347,220.7,347,220.7z"/>
	<path class="st9_party-94-24228" d="M365.1,222.1c0,0-2.8,13.8-3.1,22.9s9.5,33,9.5,33l7.3-1.3c0,0-7-24.4-5.7-28.9s8.3-22.1,6.8-25.7&#10;&#9;&#9;S365.1,222.1,365.1,222.1z"/>
	<path class="st4_party-94-24228" d="M368.9,137.7c1,1.1,9.5,1,12.9,6s16.1,20.2,16.3,27.6s-18.8,18.9-19.9,17.2s-2.5-5.8-1.1-7.2s8.7-8.4,8.7-8.4&#10;&#9;&#9;l-8.2-10.7c0,0-6.3,14.3-1.6,24.5s9,22.8,3.6,46.5c-1.5,6.6-34.7-0.4-35.8-11.6s8.1-28.6,8-36.2c-0.3-8.6-1.5-17.2-3.8-25.6&#10;&#9;&#9;c-2.6-10.4,7.4-22.2,7.4-22.2L368.9,137.7z"/>
	<path class="st5_party-94-24228" d="M352.8,277.5c0,0-0.3,5.5-3.1,8.1s-11.2,4.7-10.1,8.1s5.5,3.1,8.9,1.6s8.4-7.5,8.4-7.5c0.6,1.8,1,3.6,1.2,5.5&#10;&#9;&#9;l3.3-1l-0.9-17.5C360.5,274.6,359,278,352.8,277.5z"/>
	<path class="st5_party-94-24228" d="M371.5,278c0,0-0.2,6.4-0.5,10s-5.3,13-3.5,14.8s5.6,1.6,7.9,0s3.6-11.7,4.6-13.5s-1.3-12.6-1.3-12.6&#10;&#9;&#9;L371.5,278z"/>
	<path class="st9_party-94-24228" d="M376.6,183c0.7,1-3.5-3.9-4.4-3.3s1.9,3.4,1.9,3.4s-6.5,8.4-3.6,10.3s8-5,8-5"/>
	<path class="st9_party-94-24228" d="M359,137.6c0,0-5.6,10.8-4.1,12.1s11,3.5,12.2,2.2s1.8-14.1,1.8-14.1"/>
	<path class="st10_party-94-24228" d="M355.9,124.3c0,0-3.9,11.2-1,12.9s10.1,0,10.1,0"/>
	<path class="st9_party-94-24228" d="M355,122c0,0-1.4,15.8,6.4,17.1s9.4-14.9,7.8-17.2S357,118.3,355,122z"/>
	<path class="st10_party-94-24228" d="M365,133.7c-0.5,2-0.2,4.1,0.8,5.9c3.2,0.8,6.6,0.6,9.7-0.6c4.2-10.1-0.1-25.6-10.2-26.7s-11.7,5-12.3,8.7&#10;&#9;&#9;s1.9,3.3,2.9,3.3C364.5,123.7,366.8,128,365,133.7z"/>
</g>
<g id="sparks_party-94-24228">
	<path class="st11_party-94-24228" d="M398.3,83.9c0,0,2.1,14.4-10.8,15.8c0,0,9.9,2.4,10.8,10.8c0,0,2.2-9.7,10.3-10.8&#10;&#9;&#9;C408.7,99.7,399.1,101.5,398.3,83.9z"/>
	<path class="st11_party-94-24228" d="M426.1,117.9c0,0,2.1,14.4-10.8,15.8c0,0,9.9,2.4,10.8,10.8c0,0,2.2-9.7,10.3-10.8&#10;&#9;&#9;C436.5,133.7,426.9,135.5,426.1,117.9z"/>
	<path class="st11_party-94-24228" d="M155.3,97.2c0,0,2.1,14.4-10.7,15.8c0,0,9.9,2.4,10.7,10.8c0,0,2.2-9.7,10.3-10.8&#10;&#9;&#9;C165.6,113,156,114.8,155.3,97.2z"/>
	<path class="st11_party-94-24228" d="M181.7,71.2c0,0,2.1,14.4-10.7,15.8c0,0,9.9,2.4,10.8,10.7c0,0,2.2-9.7,10.3-10.7&#10;&#9;&#9;C192.1,87.1,182.5,88.8,181.7,71.2z"/>
</g>
<g id="person2_party-94-24228">
	<polygon class="st1_party-94-24228 targetColor" points="54.7,293.7 116,328.2 185.5,288 125.3,253.2 &#9;" style="fill: rgb(16, 69, 138);"/>
	<path class="st9_party-94-24228" d="M148.3,197.4c-0.9,1.2-0.9,6.6,0,7.2s2-0.5,2-0.5s0.6,3.3,1.5,3.3s7.1-3.1,6.8-5.8s-3.6-8.2-3.6-8.2"/>
	<path class="st9_party-94-24228" d="M74.4,97.2c0,0-0.3-6.8-1.1-6.9s-1.3,2.2-1.4,2s-1.5-6.9-2.8-7s0,6,0,6s-4.9,0.9-5.2,2.8s6,6.8,6,6.8"/>
	<path class="st12_party-94-24228" d="M96.8,276.4c0,0-0.3,5.6-3.3,7.7s-6.9,2.7-8.6,5.9s0.8,6,0.8,6c3.8,0.5,7.7-0.2,11.1-2.1c6-3.1,8.9-5,11-5.4&#10;&#9;&#9;s0.1-12.9,0.1-12.9L96.8,276.4z"/>
	<path class="st10_party-94-24228" d="M104.7,138.3c0,0-5.6-3.3-8.2-7.1S74.4,97.2,74.4,97.2s-5,0-6.4,2.2s16.8,43.3,22.3,47.5s0,49.9,2.8,54.1&#10;&#9;&#9;s24.3,8.4,29.9-1l4.2-25.8c0,0,18.8,19.9,20.2,24.3c0,0,5.8-0.2,7.6-5.2s-27.1-44.7-32.1-49.5S104.7,138.3,104.7,138.3z"/>
	<path class="st12_party-94-24228" d="M99.8,129.1c0,0-6.9-3-5-7.4s8.3-7.9,17-4.1s7.4,8.1,6.1,12.5s-3.4,8.2-4.8,8.1s-5.2-4.6-5.2-4.6"/>
	<path class="st9_party-94-24228" d="M100.4,125c-1.1-0.4-1.1,17.9,5.3,17.4s7-7.4,7-7.4s4.4-2.6,3-4.4s-4.4,0-4.4,0l-1.1-5.5&#10;&#9;&#9;C110.1,125,107.4,127.4,100.4,125z"/>
	<path class="st5_party-94-24228" d="M93.2,201c0,0-11.9,28.6-10,37.1s13.1,42.7,13.1,42.7s12.1-1.5,11.7-5.2s-7.5-36.2-6.3-40.1&#10;&#9;&#9;c1.5-5.2,5.8-19.6,6.3-16.6s5.4,18.5,9.4,23.4s34.1,28.4,34.1,28.4s8.8-6.4,7.9-9.1S137,244,133.4,235.3C130.7,229,123,200,123,200&#10;&#9;&#9;"/>
	<path class="st12_party-94-24228" d="M151.4,270.7c0.8,2.5,1.6,5.1,2.1,7.7c0.5,2.7-1.4,7.8-2.9,8.9s-1.2,3.2,0.8,4.5s7.8,0.6,9.9-1.5&#10;&#9;&#9;s0.4-6,2.1-9.5s6-10-4.4-17.6"/>
	
		<linearGradient id="SVGID_00000086693314954210553410000000704949670890862754_-party-94-24228" gradientUnits="userSpaceOnUse" x1="79.8948" y1="197.2564" x2="91.7948" y2="210.2765" gradientTransform="matrix(1 0 0 -1 0 502)">
		<stop offset="0" style="stop-color:#FFFFFF;stop-opacity:0"/>
		<stop offset="1" style="stop-color:#40424E"/>
	</linearGradient>
	<path style="opacity:0.5;fill:url(#SVGID_00000086693314954210553410000000704949670890862754_);enable-background:new    ;" d="&#10;&#9;&#9;M100.8,283.5c-10.6,6.2-21.1,12.7-31.8,18.8l6.8,3.7l32.4-18L100.8,283.5z"/>
	
		<linearGradient id="SVGID_00000179608123507152398340000002006429083342987652_-party-94-24228" gradientUnits="userSpaceOnUse" x1="132.0877" y1="194.4139" x2="143.9777" y2="207.4239" gradientTransform="matrix(1 0 0 -1 0 502)">
		<stop offset="0" style="stop-color:#FFFFFF;stop-opacity:0"/>
		<stop offset="1" style="stop-color:#40424E"/>
	</linearGradient>
	<path style="opacity:0.5;fill:url(#SVGID_00000179608123507152398340000002006429083342987652_);enable-background:new    ;" d="&#10;&#9;&#9;M153,286.4c-10.6,6.2-21.1,12.7-31.8,18.8l6.8,3.7l32.4-18L153,286.4z"/>
</g>
<g id="person1_party-94-24228">
	<polygon class="st1_party-94-24228 targetColor" points="178,351.4 239.4,385.9 308.8,345.7 248.7,310.9 &#9;" style="fill: rgb(16, 69, 138);"/>
	
		<linearGradient id="SVGID_00000082349199292208367450000010183263032753777793_-party-94-24228" gradientUnits="userSpaceOnUse" x1="222.5533" y1="121.007" x2="236.7733" y2="136.5669" gradientTransform="matrix(1 0 0 -1 0 502)">
		<stop offset="0" style="stop-color:#FFFFFF;stop-opacity:0"/>
		<stop offset="1" style="stop-color:#40424E"/>
	</linearGradient>
	<path style="opacity:0.5;fill:url(#SVGID_00000082349199292208367450000010183263032753777793_);enable-background:new    ;" d="&#10;&#9;&#9;M231.1,350c-10.6,6.2-21.1,12.7-31.8,18.8l36.5,19.3l30.7-17.7L231.1,350z"/>
	<polyline class="st9_party-94-24228" points="250,201.1 249,206.8 240.5,208.1 240.2,198.3 &#9;"/>
	<path class="st9_party-94-24228" d="M293.9,189.7c0,0-4.2-6.7-3.4-7.2s3.4,2.3,3.4,2.3s0.8-8.9,1.9-9.3s0.8,7.9,0.8,7.9s1.8-7.4,3.1-7.9&#10;&#9;&#9;s0,7.1,0,7.1s1.8-5.2,2.9-5.2s-2,7.2-2,7.2s2.2-2.1,3-2.1s-5.2,8.9-5.2,8.9"/>
	<path class="st9_party-94-24228" d="M190.5,194.3c0,0,4.5-7.4,2.9-7.9s-3.9,2.5-3.9,2.5s-0.4-10-1.8-10.2s-1.2,8.7-1.2,8.7s-1.4-8.1-2.7-8.7&#10;&#9;&#9;s0,8.7,0,8.7s-4.5-6.4-5.4-5.4s3,8.7,3,8.7s-2.5-2.8-3.1-1.8s6.2,9.9,6.2,9.9l7.6-4.6"/>
	<path class="st12_party-94-24228" d="M265.5,353c0,0,2.9,10.6,2.5,14.4s-3.6,4.9-7,4s-5.3-5.2-10.7-6.1s-12.5-7.6-9.3-12.4s21.6,2.2,21.6,2.2"/>
	<path class="st16_party-94-24228" d="M263.6,254.2c-0.4,0.6,3.3,17.3,0,29.3s-9.4,21.3-9.3,25.7s11.3,43.7,11.3,43.7s-8.4,6.6-12.7,1.2&#10;&#9;&#9;s-14.9-32-15.2-38.4s6.5-53.5,6.5-53.5"/>
	<path class="st12_party-94-24228" d="M242.4,337.3c0,0,6.3,6.7,8.6,9.7s2.6,6-0.4,7.7s-7.5-0.1-11.9,3s-14.3,3.2-15.3-2.5s17.2-13.4,17.2-13.4"/>
	<path class="st16_party-94-24228" d="M230.9,319c2,6.4,15.3,19.4,15.8,23.8c-2.6,3.8-8.1,6.4-12.1,4.9c-8.7-9-25-26.9-24.3-34.8&#10;&#9;&#9;c0.9-10.8,16.3-44,16.3-44s24.7-9,22.4,7.5S228.9,312.6,230.9,319z"/>
	<path class="st9_party-94-24228" d="M232.1,186.5c0,0,1.5,18.5,5.1,17.6s9.9-4.2,8.9-7.8S232.1,186.5,232.1,186.5z"/>
	<path class="st11_party-94-24228" d="M236,189.3c0,0-7.4-0.2-6.8-4.1s4.9-4.4,4.9-4.4s0-5.4,2.7-5.9s6.4,2.9,6.4,2.9c1.7-1.5,3.7-2.5,5.9-2.9&#10;&#9;&#9;c3.4-0.5,5.6,4.8,5.6,4.8s4.2,1.5,4.8,5.6s-4.2,4.1-4.2,4.1s3.6,0.7,2.9,3.6c-0.4,1.7-1.4,3.2-2.9,4.2c0,0-1,4.2-6.4,4.9&#10;&#9;&#9;s-8.5-1-8.6-3.7s-0.9-7.1-2.9-3.9L236,189.3z"/>
	<path class="st12_party-94-24228" d="M292.1,188.9c0,0-7.8,23.1-15.2,21.4s-20-6.4-23.5-6.3s-25.1,3-28.2,6.4s-21.2,7.3-25.6,4.7&#10;&#9;&#9;s-7.4-20.8-7.4-20.8s-9.1,0.6-10.5,2.7s6.5,23.8,13.7,31.4s29.7-2.6,29.7-2.6l-2.3,50.8c0,0,32.4,7.1,41.9-9.9l-0.1-43.2&#10;&#9;&#9;c0,0,13.9,1.1,20-2.2s17.2-28.8,15.7-30.5S292.1,188.9,292.1,188.9z"/>
</g>
</svg>